<?xml version="1.0" standalone="no"?>
<!DOCTYPE svg PUBLIC "-//W3C//DTD SVG 20010904//EN"
 "http://www.w3.org/TR/2001/REC-SVG-20010904/DTD/svg10.dtd">
<svg version="1.0" xmlns="http://www.w3.org/2000/svg"
 width="1024.000000pt" height="1024.000000pt" viewBox="0 0 1024.000000 1024.000000"
 preserveAspectRatio="xMidYMid meet">

<g transform="translate(0.000000,1024.000000) scale(0.100000,-0.100000)"
fill="#000000" stroke="none">
<path d="M0 5120 l0 -5120 5120 0 5120 0 0 5120 0 5120 -5120 0 -5120 0 0
-5120z m5566 4495 c752 -72 1509 -351 2129 -787 1086 -763 1763 -1893 1917
-3203 9 -73 13 -242 13 -500 -1 -350 -3 -407 -24 -560 -74 -547 -202 -978
-424 -1430 -535 -1087 -1486 -1919 -2630 -2299 -479 -160 -899 -226 -1433
-226 -599 0 -1127 101 -1679 321 -131 52 -441 203 -580 284 -514 296 -990 719
-1352 1200 -273 364 -513 816 -655 1234 -253 745 -311 1579 -163 2326 82 410
193 746 364 1100 325 671 774 1214 1381 1671 695 522 1534 828 2425 884 167
11 517 3 711 -15z m4138 -8863 c28 -66 96 -135 161 -163 30 -13 55 -26 55 -29
0 -3 -21 -14 -48 -24 -66 -28 -135 -96 -163 -161 -13 -30 -26 -55 -29 -55 -3
0 -16 25 -29 55 -28 65 -97 133 -163 161 -27 10 -48 21 -48 24 0 3 25 16 55
29 65 28 133 97 161 163 10 27 21 48 24 48 3 0 14 -21 24 -48z"/>
<path d="M4396 6966 c6 -16 4 -18 -10 -13 -15 6 -15 5 1 -17 12 -16 20 -20 25
-12 4 6 8 9 9 6 0 -3 2 -18 4 -34 6 -44 15 -44 15 1 0 29 -6 46 -26 64 -21 20
-24 20 -18 5z"/>
<path d="M3792 6540 c0 -14 2 -19 5 -12 2 6 2 18 0 25 -3 6 -5 1 -5 -13z"/>
<path d="M3793 6475 c0 -22 2 -30 4 -17 2 12 2 30 0 40 -3 9 -5 -1 -4 -23z"/>
<path d="M6010 6426 c0 -2 8 -10 18 -17 15 -13 16 -12 3 4 -13 16 -21 21 -21
13z"/>
<path d="M6230 6206 c0 -2 8 -10 18 -17 15 -13 16 -12 3 4 -13 16 -21 21 -21
13z"/>
<path d="M6260 6166 c0 -2 8 -10 18 -17 15 -13 16 -12 3 4 -13 16 -21 21 -21
13z"/>
<path d="M4304 6128 l-29 -33 33 29 c30 28 37 36 29 36 -2 0 -16 -15 -33 -32z"/>
<path d="M3501 5768 c-17 -24 -84 -122 -150 -218 l-120 -175 92 -3 92 -3 3
-130 c18 -847 676 -1541 1544 -1629 119 -12 161 -3 192 41 26 38 21 103 -12
140 -26 30 -32 31 -162 45 -154 17 -258 41 -380 89 -222 85 -382 189 -543 352
-114 115 -189 222 -262 368 -103 208 -140 354 -152 592 l-6 133 93 0 c73 0 91
3 87 13 -11 28 -271 427 -278 427 -4 0 -21 -19 -38 -42z"/>
<path d="M6352 4627 c-91 -33 -149 -121 -139 -212 l5 -52 -159 -159 -159 -159
-58 3 c-96 6 -167 -34 -203 -113 -19 -42 -26 -140 -10 -149 5 -4 34 21 63 55
l54 60 54 -13 c52 -14 53 -14 66 -63 14 -56 16 -52 -61 -133 -43 -46 -39 -62
15 -62 119 0 216 105 208 226 l-3 54 160 160 159 159 57 -6 c93 -9 162 24 199
97 26 51 34 108 20 144 l-11 30 -57 -62 -57 -62 -50 15 c-46 14 -51 19 -67 62
l-17 47 61 64 c48 50 58 66 47 73 -19 12 -77 10 -117 -4z"/>
</g>
</svg>
